<svg viewBox="0 0 64 64" xmlns="http://www.w3.org/2000/svg" id="Bus--Streamline-Emoji" height="64" width="64">
  <desc>
    Bus Streamline Emoji: https://streamlinehq.com
  </desc>
  <path d="M5.466666666666666 18.52s-1 5.16 -1.3333333333333333 9.719999999999999a49.81333333333333 49.81333333333333 0 0 0 0 8.32h6.933333333333334V18.52Z" fill="#00b8f0" stroke-width="1"></path>
  <path d="M4 34.04c0 1.5466666666666664 0.14666666666666667 2.5199999999999996 0.14666666666666667 2.5199999999999996h6.933333333333334v-13.599999999999998Z" fill="#4acfff" stroke-width="1"></path>
  <path d="M5.466666666666666 18.52s-1 5.16 -1.3333333333333333 9.719999999999999a49.81333333333333 49.81333333333333 0 0 0 0 8.32h6.933333333333334V18.52Z" fill="none" stroke="#45413c" stroke-linecap="round" stroke-linejoin="round" stroke-width="1"></path>
  <path d="M3.5733333333333333 56.58666666666666a28.426666666666666 2.08 0 1 0 56.85333333333333 0 28.426666666666666 2.08 0 1 0 -56.85333333333333 0Z" fill="#45413c" opacity=".15" stroke-width="1"></path>
  <path d="M59.89333333333333 45.57333333333333H3.3866666666666667v-9.013333333333332a1.3333333333333333 1.3333333333333333 0 0 1 1.3333333333333333 -1.3333333333333333h0.8666666666666667a1.3333333333333333 1.3333333333333333 0 0 0 1.3333333333333333 -1.2l1.8133333333333335 -13.333333333333332a0.6933333333333334 0.6933333333333334 0 0 0 -0.6799999999999999 -0.7866666666666666H4.866666666666666a0.6933333333333334 0.6933333333333334 0 0 1 -0.6933333333333334 -0.7733333333333332l0.29333333333333333 -2.333333333333333a2.7733333333333334 2.7733333333333334 0 0 1 2.76 -2.44H55.73333333333333a4.16 4.16 0 0 1 4.16 4.16Z" fill="#ffe500" stroke-width="1"></path>
  <path d="M55.73333333333333 14.36H7.226666666666667a2.7733333333333334 2.7733333333333334 0 0 0 -2.76 2.44l-0.29333333333333333 2.333333333333333a0.7066666666666667 0.7066666666666667 0 0 0 0.3866666666666666 0.7066666666666667 2.7733333333333334 2.7733333333333334 0 0 1 2.6666666666666665 -2.013333333333333H55.73333333333333a4.16 4.16 0 0 1 4.16 4.16v-3.466666666666667a4.16 4.16 0 0 0 -4.16 -4.16Z" fill="#fff48c" stroke-width="1"></path>
  <path d="M59.89333333333333 45.57333333333333H3.3866666666666667v-9.013333333333332a1.3333333333333333 1.3333333333333333 0 0 1 1.3333333333333333 -1.3333333333333333h0.8666666666666667a1.3333333333333333 1.3333333333333333 0 0 0 1.3333333333333333 -1.2l1.8133333333333335 -13.333333333333332a0.6933333333333334 0.6933333333333334 0 0 0 -0.6799999999999999 -0.7866666666666666H4.866666666666666a0.6933333333333334 0.6933333333333334 0 0 1 -0.6933333333333334 -0.7733333333333332l0.29333333333333333 -2.333333333333333a2.7733333333333334 2.7733333333333334 0 0 1 2.76 -2.44H55.73333333333333a4.16 4.16 0 0 1 4.16 4.16Z" fill="none" stroke="#45413c" stroke-linecap="round" stroke-linejoin="round" stroke-width="1"></path>
  <path d="M3.3866666666666667 45.57333333333333h56.50666666666667a0.6933333333333334 0.6933333333333334 0 0 1 0.6933333333333334 0.6933333333333334v3.466666666666667a1.3333333333333333 1.3333333333333333 0 0 1 -1.3333333333333333 1.3333333333333333H4.08a1.3333333333333333 1.3333333333333333 0 0 1 -1.3333333333333333 -1.3333333333333333v-3.466666666666667a0.6933333333333334 0.6933333333333334 0 0 1 0.6399999999999999 -0.6933333333333334Z" fill="#656769" stroke-width="1"></path>
  <path d="M59.89333333333333 45.57333333333333H3.3866666666666667a0.6933333333333334 0.6933333333333334 0 0 0 -0.72 0.6933333333333334v0.6933333333333334a1.3333333333333333 1.3333333333333333 0 0 0 1.3333333333333333 1.3333333333333333h55.199999999999996a1.3333333333333333 1.3333333333333333 0 0 0 1.3333333333333333 -1.3333333333333333v-0.6933333333333334a0.6933333333333334 0.6933333333333334 0 0 0 -0.6399999999999999 -0.6933333333333334Z" fill="#87898c" stroke-width="1"></path>
  <path d="M3.3866666666666667 45.57333333333333h56.50666666666667a0.6933333333333334 0.6933333333333334 0 0 1 0.6933333333333334 0.6933333333333334v3.466666666666667a1.3333333333333333 1.3333333333333333 0 0 1 -1.3333333333333333 1.3333333333333333H4.08a1.3333333333333333 1.3333333333333333 0 0 1 -1.3333333333333333 -1.3333333333333333v-3.466666666666667a0.6933333333333334 0.6933333333333334 0 0 1 0.6399999999999999 -0.6933333333333334Z" fill="none" stroke="#45413c" stroke-linecap="round" stroke-linejoin="round" stroke-width="1"></path>
  <path d="M49.493333333333325 14.36H14.479999999999999l0.44 -1.72a1.3333333333333333 1.3333333333333333 0 0 1 1.3333333333333333 -1.0533333333333332h31.46666666666667a1.3333333333333333 1.3333333333333333 0 0 1 1.3333333333333333 1.0533333333333332Z" fill="#fff48c" stroke="#45413c" stroke-linecap="round" stroke-linejoin="round" stroke-width="1"></path>
  <path d="M19.546666666666667 35.17333333333333H12.506666666666668a0.6933333333333334 0.6933333333333334 0 0 1 -0.6933333333333334 -0.7866666666666666l1.8133333333333335 -13.333333333333332a1.3333333333333333 1.3333333333333333 0 0 1 1.3333333333333333 -1.2h39.38666666666666a1.3333333333333333 1.3333333333333333 0 0 1 1.3333333333333333 1.3333333333333333v8.333333333333332a1.3333333333333333 1.3333333333333333 0 0 1 -1.3333333333333333 1.3333333333333333H22.586666666666666a1.3333333333333333 1.3333333333333333 0 0 0 -1.3333333333333333 1.1466666666666665l-0.30666666666666664 1.853333333333333a1.4 1.4 0 0 1 -1.4 1.3199999999999998Z" fill="#00b8f0" stroke-width="1"></path>
  <path d="m26.333333333333332 31.04 6.853333333333333 -11.093333333333334 18.306666666666665 -0.039999999999999994 -6.866666666666667 11.106666666666666 -18.293333333333333 0.026666666666666665z" fill="#4acfff" stroke-width="1"></path>
  <path d="M19.546666666666667 35.17333333333333H12.506666666666668a0.6933333333333334 0.6933333333333334 0 0 1 -0.6933333333333334 -0.7866666666666666l1.8133333333333335 -13.333333333333332a1.3333333333333333 1.3333333333333333 0 0 1 1.3333333333333333 -1.2h39.38666666666666a1.3333333333333333 1.3333333333333333 0 0 1 1.3333333333333333 1.3333333333333333v8.333333333333332a1.3333333333333333 1.3333333333333333 0 0 1 -1.3333333333333333 1.3333333333333333H22.586666666666666a1.3333333333333333 1.3333333333333333 0 0 0 -1.3333333333333333 1.1466666666666665l-0.30666666666666664 1.853333333333333a1.4 1.4 0 0 1 -1.4 1.3199999999999998Z" fill="none" stroke="#45413c" stroke-linecap="round" stroke-linejoin="round" stroke-width="1"></path>
  <path d="M3.3866666666666667 39.33333333333333h56.50666666666667v6.239999999999999H3.3866666666666667z" fill="#ff8a14" stroke="#45413c" stroke-linecap="round" stroke-linejoin="round" stroke-width="1"></path>
  <path d="M3.3866666666666667 38.666666666666664h1.3333333333333333l0 0v4.133333333333333l0 0h-1.3333333333333333a1.3333333333333333 1.3333333333333333 0 0 1 -1.3333333333333333 -1.3333333333333333V40a1.3333333333333333 1.3333333333333333 0 0 1 1.3333333333333333 -1.3333333333333333Z" fill="#ff6242" stroke="#45413c" stroke-linecap="round" stroke-linejoin="round" stroke-width="1"></path>
  <path d="M59.89333333333333 37.946666666666665h1.3333333333333333a1.3333333333333333 1.3333333333333333 0 0 1 1.3333333333333333 1.3333333333333333v2.08a1.3333333333333333 1.3333333333333333 0 0 1 -1.3333333333333333 1.3333333333333333h-1.3333333333333333l0 0v-4.746666666666666l0 0Z" fill="#ff6242" stroke="#45413c" stroke-linecap="round" stroke-linejoin="round" stroke-width="1"></path>
  <path d="M7.546666666666667 51.120000000000005a5.546666666666667 5.546666666666667 0 1 0 11.093333333333334 0 5.546666666666667 5.546666666666667 0 1 0 -11.093333333333334 0Z" fill="#525252" stroke-width="1"></path>
  <path d="M44.63999999999999 51.120000000000005a5.546666666666667 5.546666666666667 0 1 0 11.093333333333334 0 5.546666666666667 5.546666666666667 0 1 0 -11.093333333333334 0Z" fill="#525252" stroke-width="1"></path>
  <path d="M13.093333333333334 48.346666666666664a5.546666666666667 5.546666666666667 0 0 1 5.333333333333333 4.16 5.893333333333333 5.893333333333333 0 0 0 0.18666666666666668 -1.3333333333333333 5.546666666666667 5.546666666666667 0 0 0 -11.093333333333334 0 5.333333333333333 5.333333333333333 0 0 0 0.19999999999999998 1.3333333333333333 5.533333333333333 5.533333333333333 0 0 1 5.373333333333333 -4.16Z" fill="#656769" stroke-width="1"></path>
  <path d="M50.18666666666667 48.346666666666664a5.533333333333333 5.533333333333333 0 0 1 5.333333333333333 4.16 5.333333333333333 5.333333333333333 0 0 0 0.19999999999999998 -1.3333333333333333 5.546666666666667 5.546666666666667 0 1 0 -11.093333333333334 0 5.893333333333333 5.893333333333333 0 0 0 0.18666666666666668 1.3333333333333333 5.546666666666667 5.546666666666667 0 0 1 5.373333333333333 -4.16Z" fill="#656769" stroke-width="1"></path>
  <path d="M7.546666666666667 51.120000000000005a5.546666666666667 5.546666666666667 0 1 0 11.093333333333334 0 5.546666666666667 5.546666666666667 0 1 0 -11.093333333333334 0Z" fill="none" stroke="#45413c" stroke-linecap="round" stroke-linejoin="round" stroke-width="1"></path>
  <path d="M44.63999999999999 51.120000000000005a5.546666666666667 5.546666666666667 0 1 0 11.093333333333334 0 5.546666666666667 5.546666666666667 0 1 0 -11.093333333333334 0Z" fill="none" stroke="#45413c" stroke-linecap="round" stroke-linejoin="round" stroke-width="1"></path>
  <path d="M11.013333333333332 51.120000000000005a2.08 2.08 0 1 0 4.16 0 2.08 2.08 0 1 0 -4.16 0Z" fill="#daedf7" stroke="#45413c" stroke-linecap="round" stroke-linejoin="round" stroke-width="1"></path>
  <path d="M48.10666666666666 51.120000000000005a2.08 2.08 0 1 0 4.16 0 2.08 2.08 0 1 0 -4.16 0Z" fill="#daedf7" stroke="#45413c" stroke-linecap="round" stroke-linejoin="round" stroke-width="1"></path>
  <path d="m22.106666666666662 31.013333333333335 0 -11.106666666666666" fill="none" stroke="#45413c" stroke-linecap="round" stroke-linejoin="round" stroke-width="1"></path>
  <path d="m39.05333333333333 19.906666666666666 0 11.106666666666666" fill="none" stroke="#45413c" stroke-linecap="round" stroke-linejoin="round" stroke-width="1"></path>
  <path d="m30.586666666666666 19.906666666666666 0 11.106666666666666" fill="none" stroke="#45413c" stroke-linecap="round" stroke-linejoin="round" stroke-width="1"></path>
  <path d="m47.519999999999996 19.906666666666666 0 11.106666666666666" fill="none" stroke="#45413c" stroke-linecap="round" stroke-linejoin="round" stroke-width="1"></path>
  <path d="m9.626666666666665 17.133333333333333 2.7733333333333334 0" fill="none" stroke="#45413c" stroke-linecap="round" stroke-linejoin="round" stroke-width="1"></path>
  <path d="m51.57333333333333 17.133333333333333 2.7733333333333334 0" fill="none" stroke="#45413c" stroke-linecap="round" stroke-linejoin="round" stroke-width="1"></path>
</svg>